<?xml version="1.0" standalone="no"?>
<!DOCTYPE svg PUBLIC "-//W3C//DTD SVG 20010904//EN"
 "http://www.w3.org/TR/2001/REC-SVG-20010904/DTD/svg10.dtd">
<svg version="1.0" xmlns="http://www.w3.org/2000/svg"
 width="2279.000000pt" height="2279.000000pt" viewBox="0 0 2279.000000 2279.000000"
 preserveAspectRatio="xMidYMid meet">
<metadata>
Created by potrace 1.14, written by Peter Selinger 2001-2017
</metadata>
<g transform="translate(0.000000,2279.000000) scale(0.100000,-0.100000)"
fill="#000000" stroke="none">
<path d="M7 19891 c-2 -3 -3 -1925 -3 -4271 l1 -4265 1115 0 c972 0 1264 4
1346 19 10 2 46 7 79 10 98 12 122 16 300 51 437 87 911 269 1273 491 57 35
108 64 113 64 5 0 9 5 9 10 0 6 4 10 9 10 9 0 70 41 195 130 283 203 604 515
832 810 234 303 457 698 576 1019 11 31 25 67 31 81 6 14 12 30 13 35 72 226
104 331 107 354 3 17 7 34 10 38 8 12 64 296 72 362 4 30 8 61 10 70 1 9 6 45
9 81 4 36 9 81 11 100 15 129 17 459 17 2502 -1 1256 -1 2288 -1 2295 -1 9
-714 12 -3061 11 -1683 0 -3062 -3 -3063 -7z"/>
<path d="M7123 11394 l0 -8504 4273 0 4272 0 -1 4233 -2 4232 1545 0 c1339 0
1659 4 1764 20 12 2 46 6 76 9 30 4 66 8 80 11 31 5 154 25 195 31 83 13 408
99 544 145 230 76 508 197 696 302 33 19 83 47 110 62 160 89 477 317 640 459
160 141 364 348 480 490 22 27 45 54 50 60 6 6 46 58 88 116 43 58 84 113 92
123 8 9 15 19 15 21 0 3 19 33 43 68 97 141 283 478 331 599 10 24 24 58 31
74 87 190 225 625 249 786 3 20 8 42 10 50 3 8 7 30 10 49 3 19 7 44 10 55 2
11 7 40 11 65 4 25 9 53 11 63 2 10 6 46 10 80 3 34 8 76 10 92 25 238 25 624
-1 875 -12 121 -17 161 -25 210 -5 30 -12 73 -16 95 -3 22 -7 42 -9 45 -2 3
-6 24 -9 46 -9 58 -21 108 -80 340 -7 27 -36 117 -64 200 -401 1184 -1309
2138 -2472 2599 -377 150 -771 244 -1170 281 -36 3 -87 8 -115 11 -27 3 -2667
7 -5866 9 l-5816 2 0 -8504z"/>
</g>
</svg>
